<?xml version="1.0" encoding="UTF-8"?>
<svg id="Layer_1" data-name="Layer 1" xmlns="http://www.w3.org/2000/svg" version="1.1" xmlns:xlink="http://www.w3.org/1999/xlink" viewBox="0 0 1080 1080">
  <defs>
    <style>
      .cls-1 {
        fill: url(#linear-gradient-12);
      }

      .cls-1, .cls-2, .cls-3, .cls-4, .cls-5, .cls-6, .cls-7, .cls-8, .cls-9, .cls-10, .cls-11, .cls-12, .cls-13, .cls-14, .cls-15, .cls-16, .cls-17, .cls-18, .cls-19, .cls-20, .cls-21, .cls-22, .cls-23, .cls-24, .cls-25, .cls-26, .cls-27, .cls-28, .cls-29, .cls-30, .cls-31, .cls-32, .cls-33, .cls-34, .cls-35, .cls-36, .cls-37, .cls-38, .cls-39 {
        stroke-width: 0px;
      }

      .cls-2 {
        fill: url(#linear-gradient-17);
      }

      .cls-3 {
        fill: url(#linear-gradient-19);
      }

      .cls-4 {
        fill: url(#linear-gradient-33);
      }

      .cls-5 {
        fill: url(#linear-gradient);
      }

      .cls-6 {
        fill: url(#linear-gradient-21);
      }

      .cls-7 {
        fill: url(#linear-gradient-6);
      }

      .cls-8 {
        fill: url(#linear-gradient-15);
      }

      .cls-9 {
        fill: url(#linear-gradient-11);
      }

      .cls-10 {
        fill: url(#linear-gradient-5);
      }

      .cls-11 {
        fill: url(#linear-gradient-31);
      }

      .cls-12 {
        fill: url(#linear-gradient-34);
      }

      .cls-13 {
        fill: url(#linear-gradient-13);
      }

      .cls-14 {
        fill: url(#linear-gradient-23);
      }

      .cls-15 {
        fill: url(#linear-gradient-25);
      }

      .cls-16 {
        fill: url(#linear-gradient-16);
      }

      .cls-17 {
        fill: url(#linear-gradient-22);
      }

      .cls-18 {
        fill: url(#linear-gradient-35);
      }

      .cls-19 {
        fill: url(#linear-gradient-32);
      }

      .cls-20 {
        fill: url(#linear-gradient-20);
      }

      .cls-21 {
        fill: url(#linear-gradient-14);
      }

      .cls-22 {
        fill: url(#linear-gradient-2);
      }

      .cls-23 {
        fill: url(#linear-gradient-7);
      }

      .cls-24 {
        fill: url(#linear-gradient-3);
      }

      .cls-25 {
        fill: url(#linear-gradient-9);
      }

      .cls-26 {
        fill: url(#linear-gradient-27);
      }

      .cls-27 {
        fill: url(#radial-gradient);
      }

      .cls-28 {
        fill: url(#linear-gradient-36);
      }

      .cls-29 {
        fill: #232323;
      }

      .cls-30 {
        fill: url(#linear-gradient-8);
      }

      .cls-31 {
        fill: url(#linear-gradient-24);
      }

      .cls-32 {
        fill: url(#linear-gradient-26);
      }

      .cls-33 {
        fill: url(#linear-gradient-18);
      }

      .cls-34 {
        fill: url(#linear-gradient-30);
      }

      .cls-35 {
        fill: url(#linear-gradient-29);
      }

      .cls-36 {
        fill: url(#linear-gradient-28);
      }

      .cls-37 {
        fill: url(#linear-gradient-10);
      }

      .cls-38 {
        fill: url(#linear-gradient-4);
      }

      .cls-39 {
        fill: url(#linear-gradient-37);
      }
    </style>
    <linearGradient id="linear-gradient" x1="814" y1="1250.5" x2="122.7" y2="765" gradientUnits="userSpaceOnUse">
      <stop offset="0" stop-color="#9f41ef"/>
      <stop offset="1" stop-color="#33b1fb"/>
    </linearGradient>
    <linearGradient id="linear-gradient-2" x1="848.9" y1="1200.8" x2="157.6" y2="715.3" xlink:href="#linear-gradient"/>
    <linearGradient id="linear-gradient-3" x1="863.5" y1="1180.1" x2="172.1" y2="694.6" xlink:href="#linear-gradient"/>
    <linearGradient id="linear-gradient-4" x1="895.5" y1="1134.5" x2="204.1" y2="649" xlink:href="#linear-gradient"/>
    <linearGradient id="linear-gradient-5" x1="927.4" y1="1089" x2="236.1" y2="603.6" xlink:href="#linear-gradient"/>
    <linearGradient id="linear-gradient-6" x1="944.4" y1="1064.9" x2="253" y2="579.4" xlink:href="#linear-gradient"/>
    <linearGradient id="linear-gradient-7" x1="983.5" y1="1009.1" x2="292.2" y2="523.6" xlink:href="#linear-gradient"/>
    <linearGradient id="linear-gradient-8" x1="1016.1" y1="962.7" x2="324.8" y2="477.2" xlink:href="#linear-gradient"/>
    <linearGradient id="linear-gradient-9" x1="1047.6" y1="917.9" x2="356.2" y2="432.4" xlink:href="#linear-gradient"/>
    <linearGradient id="linear-gradient-10" x1="1070.1" y1="885.8" x2="378.8" y2="400.3" xlink:href="#linear-gradient"/>
    <linearGradient id="linear-gradient-11" x1="1100.6" y1="842.5" x2="409.2" y2="357" xlink:href="#linear-gradient"/>
    <linearGradient id="linear-gradient-12" x1="1124" y1="809" x2="432.7" y2="323.5" xlink:href="#linear-gradient"/>
    <linearGradient id="linear-gradient-13" x1="730.2" y1="584.7" x2="460.2" y2="355.2" xlink:href="#linear-gradient"/>
    <linearGradient id="linear-gradient-14" x1="737.6" y1="576" x2="467.6" y2="346.5" xlink:href="#linear-gradient"/>
    <radialGradient id="radial-gradient" cx="690.5" cy="270.3" fx="690.5" fy="270.3" r="2.2" gradientUnits="userSpaceOnUse">
      <stop offset="0" stop-color="#ccc"/>
      <stop offset="0" stop-color="#cfcfcf"/>
      <stop offset=".5" stop-color="#f1f1f1"/>
      <stop offset=".8" stop-color="#fff"/>
    </radialGradient>
    <linearGradient id="linear-gradient-15" x1="780.8" y1="1297.8" x2="89.4" y2="812.3" xlink:href="#linear-gradient"/>
    <linearGradient id="linear-gradient-16" x1="791.4" y1="1282.7" x2="100.1" y2="797.2" xlink:href="#linear-gradient"/>
    <linearGradient id="linear-gradient-17" x1="801.3" y1="1268.6" x2="110" y2="783.1" xlink:href="#linear-gradient"/>
    <linearGradient id="linear-gradient-18" x1="817.4" y1="1245.6" x2="126.1" y2="760.1" xlink:href="#linear-gradient"/>
    <linearGradient id="linear-gradient-19" x1="833.4" y1="1222.9" x2="142.1" y2="737.4" xlink:href="#linear-gradient"/>
    <linearGradient id="linear-gradient-20" x1="847.2" y1="1203.3" x2="155.8" y2="717.8" xlink:href="#linear-gradient"/>
    <linearGradient id="linear-gradient-21" x1="861" y1="1183.6" x2="169.6" y2="698.1" xlink:href="#linear-gradient"/>
    <linearGradient id="linear-gradient-22" x1="870.6" y1="1170" x2="179.2" y2="684.5" xlink:href="#linear-gradient"/>
    <linearGradient id="linear-gradient-23" x1="885.8" y1="1148.3" x2="194.4" y2="662.8" xlink:href="#linear-gradient"/>
    <linearGradient id="linear-gradient-24" x1="899" y1="1129.5" x2="207.6" y2="644" xlink:href="#linear-gradient"/>
    <linearGradient id="linear-gradient-25" x1="909.6" y1="1114.4" x2="218.3" y2="628.9" xlink:href="#linear-gradient"/>
    <linearGradient id="linear-gradient-26" x1="920.7" y1="1098.6" x2="229.3" y2="613.1" xlink:href="#linear-gradient"/>
    <linearGradient id="linear-gradient-27" x1="925.1" y1="1092.3" x2="233.7" y2="606.8" xlink:href="#linear-gradient"/>
    <linearGradient id="linear-gradient-28" x1="938.4" y1="1073.4" x2="247.1" y2="587.9" xlink:href="#linear-gradient"/>
    <linearGradient id="linear-gradient-29" x1="949.7" y1="1057.2" x2="258.4" y2="571.7" xlink:href="#linear-gradient"/>
    <linearGradient id="linear-gradient-30" x1="960.3" y1="1042.1" x2="269" y2="556.6" xlink:href="#linear-gradient"/>
    <linearGradient id="linear-gradient-31" x1="980.3" y1="1013.7" x2="289" y2="528.2" xlink:href="#linear-gradient"/>
    <linearGradient id="linear-gradient-32" x1="993.5" y1="994.9" x2="302.2" y2="509.4" xlink:href="#linear-gradient"/>
    <linearGradient id="linear-gradient-33" x1="997.9" y1="988.7" x2="306.6" y2="503.2" xlink:href="#linear-gradient"/>
    <linearGradient id="linear-gradient-34" x1="1007.4" y1="975.2" x2="316" y2="489.7" xlink:href="#linear-gradient"/>
    <linearGradient id="linear-gradient-35" x1="1025.2" y1="949.8" x2="333.9" y2="464.3" xlink:href="#linear-gradient"/>
    <linearGradient id="linear-gradient-36" x1="1035.8" y1="934.6" x2="344.5" y2="449.1" xlink:href="#linear-gradient"/>
    <linearGradient id="linear-gradient-37" x1="1045.6" y1="920.7" x2="354.3" y2="435.2" xlink:href="#linear-gradient"/>
  </defs>
  <g>
    <path class="cls-5" d="M121.6,732.2c4,5.3,6.1,11.4,6.1,18.4,0,10.6-3.5,18.8-10.5,24.5-7,5.8-17.1,8.6-30.2,8.6H23.5v-121.1h61.7c12.3,0,22,2.7,29.1,8,7.1,5.4,10.6,13.2,10.6,23.4s-1.9,13-5.6,17.9c-3.7,4.8-8.6,8.1-14.8,9.7,7.3,1.7,13,5.2,17,10.5ZM61.5,709.9h14.7c3.4,0,6-.7,7.6-2.1,1.7-1.4,2.5-3.5,2.5-6.3s-.8-5.2-2.5-6.6c-1.7-1.4-4.2-2.1-7.6-2.1h-14.7v17.1ZM86.3,751.3c1.7-1.3,2.5-3.4,2.5-6.4,0-5.8-3.4-8.7-10.1-8.7h-17.3v17.1h17.3c3.4,0,6-.7,7.6-2Z"/>
    <path class="cls-22" d="M143.7,674.3c-4-3.5-6-8-6-13.3s2-10,6-13.6c4-3.6,9.3-5.4,15.9-5.4s11.7,1.8,15.7,5.4c4,3.6,6,8.1,6,13.6s-2,9.8-6,13.3c-4,3.5-9.2,5.3-15.7,5.3s-11.9-1.8-15.9-5.3ZM178.4,687.3v96.4h-38v-96.4h38Z"/>
    <path class="cls-24" d="M232,752.3h40.2v31.5h-81.7v-29.8l36.8-35.2h-36.3v-31.5h79.5v29.8l-38.5,35.2Z"/>
    <path class="cls-38" d="M373.7,742.7h-74.9c.6,9.2,3.7,16.4,9.5,21.6,5.8,5.2,12.7,7.8,20.9,7.8s12.3-1.6,16.8-4.7c4.5-3.1,7.7-7.3,9.5-12.6h16.8c-2.5,9-7.5,16.3-15,22-7.5,5.6-16.9,8.5-28,8.5s-16.8-2-23.9-6c-7-4-12.5-9.7-16.5-17-4-7.4-6-15.9-6-25.6s1.9-18.2,5.8-25.5c3.9-7.3,9.3-12.9,16.3-16.8,7-3.9,15.1-5.9,24.2-5.9s16.8,1.9,23.6,5.8c6.8,3.9,12.1,9.2,15.8,16,3.7,6.8,5.6,14.5,5.6,23s-.2,6.1-.5,9.4ZM354.2,714.7c-2.6-4.3-6.2-7.5-10.7-9.7-4.5-2.2-9.5-3.3-15-3.3-7.9,0-14.6,2.5-20.1,7.5-5.5,5-8.7,12-9.5,20.9h59.2c0-5.9-1.3-11-3.9-15.3Z"/>
    <path class="cls-10" d="M410.3,657.2v126.5h-15.6v-126.5h15.6Z"/>
    <path class="cls-7" d="M521.8,742.7h-74.9c.6,9.2,3.7,16.4,9.5,21.6,5.8,5.2,12.7,7.8,20.9,7.8s12.3-1.6,16.8-4.7c4.5-3.1,7.7-7.3,9.5-12.6h16.8c-2.5,9-7.5,16.3-15,22-7.5,5.6-16.9,8.5-28,8.5s-16.8-2-23.9-6c-7-4-12.5-9.7-16.5-17-4-7.4-6-15.9-6-25.6s1.9-18.2,5.8-25.5c3.9-7.3,9.3-12.9,16.3-16.8,7-3.9,15.1-5.9,24.2-5.9s16.8,1.9,23.6,5.8c6.8,3.9,12.1,9.2,15.8,16,3.7,6.8,5.6,14.5,5.6,23s-.2,6.1-.5,9.4ZM502.3,714.7c-2.6-4.3-6.2-7.5-10.7-9.7-4.5-2.2-9.5-3.3-15-3.3-7.9,0-14.6,2.5-20.1,7.5-5.5,5-8.7,12-9.5,20.9h59.2c0-5.9-1.3-11-3.9-15.3Z"/>
    <path class="cls-23" d="M577.7,769.4l29.1-79.3h16.6l-36.8,93.7h-18.1l-36.8-93.7h16.8l29.2,79.3Z"/>
    <path class="cls-30" d="M638.8,711.3c3.9-7.2,9.2-12.9,16-16.8,6.8-4,14.3-6,22.7-6s15.3,1.8,21.4,5.3c6,3.5,10.5,8,13.5,13.3v-17.1h15.7v93.7h-15.7v-17.4c-3.1,5.5-7.7,10-13.8,13.6-6.1,3.6-13.2,5.4-21.3,5.4s-15.8-2.1-22.6-6.2c-6.7-4.1-12-9.9-15.9-17.3-3.9-7.4-5.8-15.8-5.8-25.3s1.9-18,5.8-25.2ZM708,718.2c-2.9-5.2-6.7-9.3-11.5-12.1-4.8-2.8-10.2-4.2-16-4.2s-11.1,1.4-15.9,4.1c-4.8,2.7-8.6,6.7-11.5,12-2.9,5.2-4.3,11.4-4.3,18.5s1.4,13.4,4.3,18.7c2.8,5.3,6.7,9.3,11.5,12.1,4.8,2.8,10.1,4.2,15.9,4.2s11.1-1.4,16-4.2c4.8-2.8,8.7-6.8,11.5-12.1,2.8-5.3,4.3-11.5,4.3-18.6s-1.4-13.2-4.3-18.5Z"/>
    <path class="cls-25" d="M773.4,702.9v55.2c0,4.6,1,7.8,2.9,9.7,1.9,1.9,5.3,2.8,10.1,2.8h11.5v13.2h-14c-8.7,0-15.2-2-19.5-6-4.3-4-6.5-10.5-6.5-19.7v-55.2h-12.1v-12.8h12.1v-23.6h15.6v23.6h24.5v12.8h-24.5Z"/>
    <path class="cls-37" d="M833.7,779.3c-7.1-4-12.7-9.7-16.8-17-4-7.4-6.1-15.9-6.1-25.6s2.1-18,6.2-25.4c4.2-7.4,9.8-13,17-16.9,7.2-3.9,15.2-5.9,24.1-5.9s16.9,2,24.1,5.9,12.9,9.5,17,16.8c4.2,7.3,6.2,15.8,6.2,25.5s-2.1,18.2-6.4,25.6-10.1,13-17.4,17c-7.3,4-15.4,6-24.3,6s-16.7-2-23.9-6ZM873.2,767.7c4.9-2.6,8.9-6.6,11.9-11.8,3-5.2,4.5-11.6,4.5-19.2s-1.5-13.9-4.4-19.2c-3-5.2-6.8-9.1-11.6-11.7-4.8-2.6-10-3.8-15.6-3.8s-10.9,1.3-15.6,3.8c-4.7,2.6-8.5,6.5-11.4,11.7-2.9,5.2-4.3,11.6-4.3,19.2s1.4,14.1,4.2,19.3c2.8,5.2,6.5,9.1,11.2,11.7,4.7,2.6,9.8,3.8,15.4,3.8s10.8-1.3,15.7-3.9Z"/>
    <path class="cls-9" d="M953.4,692.8c5.1-3,11.3-4.4,18.6-4.4v16.1h-4.1c-17.4,0-26.2,9.5-26.2,28.4v51h-15.6v-93.7h15.6v15.2c2.7-5.4,6.6-9.5,11.7-12.5Z"/>
    <path class="cls-1" d="M1003.7,781.6c-5.7-2.4-10.2-5.9-13.5-10.3-3.3-4.4-5.1-9.4-5.5-15.1h16.1c.5,4.7,2.7,8.5,6.6,11.5,3.9,3,9.1,4.4,15.5,4.4s10.6-1.3,14-3.9c3.4-2.6,5.1-5.9,5.1-9.9s-1.8-7.2-5.5-9.1c-3.6-2-9.3-4-16.9-5.9-7-1.8-12.6-3.7-17-5.6-4.4-1.9-8.2-4.7-11.3-8.4-3.1-3.7-4.7-8.6-4.7-14.6s1.4-9.2,4.3-13.2c2.8-4,6.9-7.2,12.1-9.5,5.2-2.3,11.2-3.5,18-3.5,10.4,0,18.8,2.6,25.1,7.9,6.4,5.2,9.8,12.4,10.3,21.5h-15.6c-.3-4.9-2.3-8.8-5.9-11.8-3.6-3-8.4-4.4-14.4-4.4s-10,1.2-13.3,3.6c-3.3,2.4-5,5.5-5,9.4s1,5.6,3,7.6c2,2,4.5,3.6,7.5,4.8,3,1.2,7.2,2.5,12.6,4,6.7,1.8,12.2,3.6,16.4,5.4,4.2,1.8,7.8,4.4,10.9,8,3,3.5,4.6,8.2,4.7,13.9,0,5.1-1.4,9.7-4.3,13.9-2.9,4.1-6.9,7.3-12.1,9.7-5.2,2.3-11.1,3.5-17.9,3.5s-13.6-1.2-19.3-3.7Z"/>
  </g>
  <g>
    <g>
      <path class="cls-13" d="M712.4,492.1c.2-29.2-10.1-53.7-32.2-73.2-9.5-8.4-9.4-13.8.4-22.5,14.2-12.5,24.8-27.5,28.6-46,2.9-13.9,4.4-27.9,4.1-41.9-3.9,1.2-8,1.8-12.3,1.8h0c-23.4,0-42.3-18.9-42.3-42.3h0c0-16.7,9.7-31.2,23.8-38-15.9-14.1-37.3-22-61.7-22.1-72.1-.3-144.3-.1-216.4,0-24,0-37,13.2-37,37.6,0,54.1,0,108.2,0,162.3h0c0,54.5,0,108.9,0,163.4,0,22.2,13.1,36.9,33.4,37,74.6.2,149.2.3,223.8,0,37.3-.2,68.6-23.2,82-58.2,7.2-18.7,5.6-38.2,5.8-57.6ZM465.7,540.2c-.2,10.9-7.8,17.5-17.5,17.1-9.3-.5-15.5-7.1-15.7-17.8-.3-14.1,0-28.2,0-42.3,0-14.1-.2-28.2,0-42.3.2-11.2,6.6-18,16.5-18.2,9-.2,16.6,6.4,16.8,16.8.5,28.9.5,57.9,0,86.8ZM486.1,336c-2.4,1.4-4.8,2.8-7.4,3.9-.4.2-.4.2-.3.6.2,1.5.2,3,.2,4.5-.2,4.8-1.6,9.3-3.6,13.7-2.1,4.7-4.9,9-8.3,13-2.5,2.9-5.2,5.5-8.2,7.9-2.6,2.1-5.5,4-8.4,5.7-5.6,3.2-11.4,5.5-17.7,6.9-2.2.5-4.4.9-6.7,1.1,0,0-.2,0-.2,0h-3.7c-.1,0-.2,0-.3,0h-1.4c0,0,.1,0,0-.1,0,0-.2,0-.3,0-.7-.1-1.4-.3-2-.5-1.3-.4-2.5-1-3.5-2,0,0,0,0-.1,0h0v-.2h0c0,0,0,0,0,0,.2,0,.4,0,.6.1,1.2.5,2.5.9,3.8,1,1.3.2,2.5.2,3.8,0,3.5-.3,6.9-1.2,10.3-2.3,5.2-1.7,10.2-3.9,14.8-6.8,4-2.5,7.7-5.4,11.1-8.7,4.1-4,7.5-8.5,10.1-13.6,1.5-3,2.7-6,3.6-9.3.7-2.6,1-5.3.8-8.1,0-.2,0-.5,0-.7-.1,0-.2,0-.3,0-3.3,1.2-6.8,2.1-10.2,2.8-1.4.3-2.9.5-4.3.7-2.5.3-5.1.5-7.6.5-1.9,0-3.9,0-5.8-.2-1.3,0-2.6-.2-3.8-.4-2.8-.4-5.5-1.3-7.9-2.8-1-.6-1.8-1.4-2.6-2.3-1.4-1.6-2.1-3.5-2.2-5.7,0-1.5.4-3,1.1-4.3.8-1.5,1.8-2.8,2.9-4,4-4.5,9.1-7.3,15-8.6,2.2-.5,4.4-.6,6.7-.5,4.5.2,8.7,1.6,12.5,4.1,3.9,2.6,6.9,5.9,9.1,10.1,0,0,0,.2.1.2,0,0,0,0,0,0,.3-.2.7-.3,1-.5,6-3.2,11.4-7.1,16.2-11.9,3.5-3.5,6.5-7.2,9-11.4,2.4-3.9,4.4-8,6-12.2,1.6-4.3,2.8-8.6,3.6-13.1.4-2.1.7-4.1.9-6.2.3-3,.5-6,.4-9,0-1.9,0-3.7-.2-5.6,0-.1,0-.2,0-.4-2.4,1.2-4.8,2.4-7.2,3.5-2.4,1.2-4.8,2.3-7.2,3.5,0-.3,15.6-31,16.2-32,6.7,9.9,13.4,19.8,20.1,29.6h0c-1.3-.3-2.6-.7-3.9-1.1-1.3-.4-2.7-.8-4-1.3-1.3-.4-2.6-.8-4-1.3,0,.2,0,.3,0,.5.1,2.9.1,5.8,0,8.7,0,1.5-.2,3.1-.4,4.6-.4,4.2-1.2,8.4-2.2,12.5-1.9,7.6-4.9,14.9-8.9,21.6-3.3,5.6-7.3,10.7-12,15.2-4,3.9-8.5,7.3-13.3,10.3ZM541.2,537.6c0,12.2-6,19.4-16,19.5-10.8.2-16.9-6.6-17-19.7-.1-47.4-.1-94.8,0-142.2,0-11.8,6.8-19.3,16.6-19.2,9.9.1,16.3,7.6,16.3,19.4.1,23.7,0,47.4,0,71.1h0c0,23.7,0,47.4,0,71.1ZM617.4,536.3c0,13.4-6.2,21.1-16.8,21.1-10.5,0-16.8-7.7-16.8-21.3,0-66.7,0-133.5,0-200.2,0-12.3,6.8-20.5,16.5-20.7,10.4-.2,17,7.8,17,21,0,23.2,0,46.4,0,69.7v31c0,10.6,0,21.3,0,31.9,0,22.6,0,45.1,0,67.7Z"/>
      <path class="cls-21" d="M466.7,329.5c-4.5-4.2-9.8-6.1-15.9-5.3-3.5.4-6.7,1.7-9.6,3.8-1.8,1.3-3.4,2.9-4.7,4.8-.4.5-.7,1.1-.9,1.7-.2.5,0,.9.2,1.3.2.3.5.5.8.8.8.5,1.6.9,2.5,1.2,1.4.5,2.9.7,4.5.8,1.9.2,3.8.2,5.8.2,1.7,0,3.5-.1,5.2-.3,1.7-.2,3.4-.4,5.1-.8,2.6-.5,5.1-1.2,7.6-2,1.1-.4,2.1-.7,3.2-1.2,0-.1-.1-.2-.2-.3-1-1.7-2.3-3.3-3.7-4.7Z"/>
    </g>
    <path class="cls-29" d="M689.5,257.3c-2.2,0-4.2.6-6,1.5,1.5,1.3,2.4,3.2,2.4,5.4,0,4-3.2,7.2-7.2,7.2s-1.2,0-1.7-.2c.6,6.4,6,11.3,12.5,11.3s12.6-5.6,12.6-12.6-5.6-12.6-12.6-12.6Z"/>
    <circle class="cls-27" cx="690.5" cy="270.3" r="2.2"/>
  </g>
  <g>
    <path class="cls-8" d="M152.3,835.8v4.8c0,12.4-10.2,22.6-22.6,22.6s-22.5-10.2-22.5-22.6,10.1-22.5,22.6-22.5,11.5,2.2,15.9,6.5l-6.7,6.8c-2.5-2.5-5.8-3.8-9.2-3.8-7.1,0-13.1,5.8-13.1,13.1s5.9,13,13,13,10.2-3.3,12.2-8.2h-10.5v-9.6h20.9Z"/>
    <path class="cls-16" d="M176.5,825.6v9.2h-2.3c-5.4,0-7.6,3.6-7.6,8.6v19.3h-9.2v-36.7h8.4l.6,3.7c1.5-2.5,4-4.2,7.9-4.2h2.3Z"/>
    <path class="cls-2" d="M216,844.4c0,10.3-8.4,18.6-18.6,18.6s-18.6-8.4-18.6-18.6,8.4-18.6,18.6-18.6,18.6,8.4,18.6,18.6ZM206.5,844.4c0-5-4.1-9.1-9.1-9.1s-9.1,4.1-9.1,9.1,4.1,9.1,9.1,9.1,9.1-4.1,9.1-9.1Z"/>
    <path class="cls-33" d="M266.8,826l-13,39.6-11.8-20.7-12.7,20.7-11.5-39.7h9.5l5,17.3,10-16.3,9.3,16.2,5.6-17.1h9.7Z"/>
    <path class="cls-3" d="M317.2,826l-20.6,47.2h-10.2l7.9-18.1-10.6-29.1h10.5l5.5,16.6,7.2-16.6h10.2Z"/>
    <path class="cls-20" d="M354.9,844.4c0,10.3-8.4,18.6-18.6,18.6s-18.6-8.4-18.6-18.6,8.4-18.6,18.6-18.6,18.6,8.4,18.6,18.6ZM345.3,844.4c0-5-4.1-9.1-9.1-9.1s-9.1,4.1-9.1,9.1,4.1,9.1,9.1,9.1,9.1-4.1,9.1-9.1Z"/>
    <path class="cls-6" d="M389.9,826.1v36.7h-8.4l-.7-4.9c-1.9,3.4-5.3,5.3-10.2,5.3-10.7,0-10.6-8.9-10.6-19.2v-18h9.2v20.9c0,4.2.3,7.4,3.2,7.4,4.3,0,8.4-2,8.4-9.6v-18.6h9.2Z"/>
    <path class="cls-17" d="M416.2,825.6v9.2h-2.3c-5.4,0-7.6,3.6-7.6,8.6v19.3h-9.2v-36.7h8.4l.6,3.7c1.5-2.5,4-4.2,7.9-4.2h2.3Z"/>
    <path class="cls-14" d="M469.5,843.7c0,13-5.7,19.4-14.3,19.4s-7.4-1.5-9.8-4.4l-.4,4.1h-8.4v-53.4h9.2v19.9c2.3-2.3,5.4-3.5,8.8-3.5,8.1,0,14.9,6.2,14.9,17.9ZM460.4,844c0-6.6-3.7-9.8-7.4-9.8s-7.2,1.8-7.2,6v5.6c0,5.1,3.6,8.2,7.3,8.2s7.3-4.1,7.3-10.1Z"/>
    <path class="cls-31" d="M505,826.1v36.7h-8.4l-.7-4.9c-1.9,3.4-5.3,5.3-10.2,5.3-10.7,0-10.6-8.9-10.6-19.2v-18h9.2v20.9c0,4.2.3,7.4,3.2,7.4,4.3,0,8.4-2,8.4-9.6v-18.6h9.2Z"/>
    <path class="cls-15" d="M538.3,851.8c0,4.3-2.2,11.4-13.7,11.4s-11.2-3.2-15.1-7.9l6.1-6.1s3.9,5.9,9,5.9,4.1-1,4.1-3.2c0-6-14.7-5.4-14.7-15.5s2.7-10.6,11.9-10.6,11.5,4,12.9,6.3l-6.2,4.9s-1.9-2.7-4.9-2.7-2.7.9-2.7,2.4c0,3.3,13.4,4.6,13.4,15.2Z"/>
    <path class="cls-32" d="M542.1,815.4c0-3.3,2.7-6,6-6s6,2.7,6,6-2.7,6-6,6-6-2.7-6-6ZM543.6,862.8v-36.7h9.1v36.7h-9.1Z"/>
    <path class="cls-26" d="M589.9,844.8v18h-9.2v-18c0-5.6-.3-10.3-3.8-10.3s-7.7,2-7.7,9.6v18.6h-9.2v-36.7h8.4l.7,4.9c2-3.4,5.3-5.3,10.7-5.3,10.2,0,10.1,8.8,10.1,19.2Z"/>
    <path class="cls-36" d="M628.2,855.6c-4.2,5.1-10.3,7.7-16,7.7-8.8,0-16.9-6.3-16.9-19.7s8.8-18.2,17.3-18.2,15.3,5,15.3,14.7,0,1.6-.1,2.4l-20.7,8.9c1.8,2.1,4.4,3,7,3s6.7-1.5,8.4-4.2l5.8,5.3ZM604.5,844.1l13.5-5.8c0-2.6-2.5-4.3-5.4-4.3s-8.1,2.8-8.1,9.8v.3Z"/>
    <path class="cls-35" d="M659.8,851.8c0,4.3-2.2,11.4-13.7,11.4s-11.2-3.2-15.1-7.9l6.1-6.1s3.9,5.9,9,5.9,4.1-1,4.1-3.2c0-6-14.7-5.4-14.7-15.5s2.7-10.6,11.9-10.6,11.5,4,12.9,6.3l-6.2,4.9s-1.9-2.7-4.9-2.7-2.7.9-2.7,2.4c0,3.3,13.4,4.6,13.4,15.2Z"/>
    <path class="cls-34" d="M691.9,851.8c0,4.3-2.2,11.4-13.7,11.4s-11.2-3.2-15.1-7.9l6.1-6.1s3.9,5.9,9,5.9,4.1-1,4.1-3.2c0-6-14.7-5.4-14.7-15.5s2.7-10.6,11.9-10.6,11.5,4,12.9,6.3l-6.2,4.9s-1.9-2.7-4.9-2.7-2.7.9-2.7,2.4c0,3.3,13.4,4.6,13.4,15.2Z"/>
    <path class="cls-11" d="M760,826l-13,39.6-11.8-20.7-12.7,20.7-11.5-39.7h9.5l5,17.3,10-16.3,9.3,16.2,5.6-17.1h9.7Z"/>
    <path class="cls-19" d="M762.7,815.4c0-3.3,2.7-6,6-6s6,2.7,6,6-2.7,6-6,6-6-2.7-6-6ZM764.2,862.8v-36.7h9.1v36.7h-9.1Z"/>
    <path class="cls-4" d="M800.3,825.6v8.7h-6.6v28l-9.2,3.9v-31.9h-6.6v-8.7h6.6v-7.7h9.2v7.7h6.6Z"/>
    <path class="cls-12" d="M834.9,844.7v18h-9.2v-20.6c0-4.4-.2-7.8-3.2-7.8-4.4,0-8.4,2-8.4,9.6v18.7h-9.2v-53h9.2v21c2-3.3,5.3-5.1,10.6-5.1,10.2,0,10.1,8.8,10.1,19.2Z"/>
    <path class="cls-18" d="M887.1,826.1v36.7h-8.4l-.7-4.9c-1.9,3.4-5.3,5.3-10.2,5.3-10.7,0-10.6-8.9-10.6-19.2v-18h9.2v20.9c0,4.2.3,7.4,3.2,7.4,4.3,0,8.4-2,8.4-9.6v-18.6h9.2Z"/>
    <path class="cls-28" d="M920.4,851.8c0,4.3-2.2,11.4-13.7,11.4s-11.2-3.2-15.1-7.9l6.1-6.1s3.9,5.9,9,5.9,4.1-1,4.1-3.2c0-6-14.7-5.4-14.7-15.5s2.7-10.6,11.9-10.6,11.5,4,12.9,6.3l-6.2,4.9s-1.9-2.7-4.9-2.7-2.7.9-2.7,2.4c0,3.3,13.4,4.6,13.4,15.2Z"/>
    <path class="cls-39" d="M925.5,859.1c0-3.4,2.7-6,6-6s6,2.7,6,6-2.7,6-6,6-6-2.7-6-6ZM927.6,850.5l-.6-32.6h9.1l-.6,32.6h-7.9Z"/>
  </g>
</svg>