<?xml version="1.0" encoding="UTF-8"?>
<svg id="Layer_1" data-name="Layer 1" xmlns="http://www.w3.org/2000/svg" version="1.1" xmlns:xlink="http://www.w3.org/1999/xlink" viewBox="0 0 1080 1080">
  <defs>
    <style>
      .cls-1 {
        fill: url(#linear-gradient-12);
      }

      .cls-1, .cls-2, .cls-3, .cls-4, .cls-5, .cls-6, .cls-7, .cls-8, .cls-9, .cls-10, .cls-11, .cls-12, .cls-13, .cls-14, .cls-15, .cls-16, .cls-17, .cls-18, .cls-19, .cls-20, .cls-21, .cls-22, .cls-23, .cls-24, .cls-25, .cls-26, .cls-27, .cls-28, .cls-29, .cls-30, .cls-31, .cls-32, .cls-33, .cls-34, .cls-35, .cls-36, .cls-37, .cls-38, .cls-39 {
        stroke-width: 0px;
      }

      .cls-2 {
        fill: url(#linear-gradient-17);
      }

      .cls-3 {
        fill: url(#linear-gradient-19);
      }

      .cls-4 {
        fill: url(#linear-gradient-33);
      }

      .cls-5 {
        fill: url(#linear-gradient);
      }

      .cls-6 {
        fill: url(#linear-gradient-21);
      }

      .cls-7 {
        fill: url(#linear-gradient-6);
      }

      .cls-8 {
        fill: url(#linear-gradient-15);
      }

      .cls-9 {
        fill: url(#linear-gradient-11);
      }

      .cls-10 {
        fill: url(#linear-gradient-5);
      }

      .cls-11 {
        fill: url(#linear-gradient-31);
      }

      .cls-12 {
        fill: url(#linear-gradient-34);
      }

      .cls-13 {
        fill: url(#linear-gradient-13);
      }

      .cls-14 {
        fill: url(#linear-gradient-23);
      }

      .cls-15 {
        fill: url(#linear-gradient-25);
      }

      .cls-16 {
        fill: url(#linear-gradient-16);
      }

      .cls-17 {
        fill: url(#linear-gradient-22);
      }

      .cls-18 {
        fill: url(#linear-gradient-35);
      }

      .cls-19 {
        fill: url(#linear-gradient-32);
      }

      .cls-20 {
        fill: url(#linear-gradient-20);
      }

      .cls-21 {
        fill: url(#linear-gradient-14);
      }

      .cls-22 {
        fill: url(#linear-gradient-2);
      }

      .cls-23 {
        fill: url(#linear-gradient-7);
      }

      .cls-24 {
        fill: url(#linear-gradient-3);
      }

      .cls-25 {
        fill: url(#linear-gradient-9);
      }

      .cls-26 {
        fill: url(#linear-gradient-27);
      }

      .cls-27 {
        fill: url(#radial-gradient);
      }

      .cls-28 {
        fill: url(#linear-gradient-36);
      }

      .cls-29 {
        fill: #232323;
      }

      .cls-30 {
        fill: url(#linear-gradient-8);
      }

      .cls-31 {
        fill: url(#linear-gradient-24);
      }

      .cls-32 {
        fill: url(#linear-gradient-26);
      }

      .cls-33 {
        fill: url(#linear-gradient-18);
      }

      .cls-34 {
        fill: url(#linear-gradient-30);
      }

      .cls-35 {
        fill: url(#linear-gradient-29);
      }

      .cls-36 {
        fill: url(#linear-gradient-28);
      }

      .cls-37 {
        fill: url(#linear-gradient-10);
      }

      .cls-38 {
        fill: url(#linear-gradient-4);
      }

      .cls-39 {
        fill: url(#linear-gradient-37);
      }
    </style>
    <linearGradient id="linear-gradient" x1="822.2" y1="1245.9" x2="150.1" y2="773.9" gradientUnits="userSpaceOnUse">
      <stop offset="0" stop-color="#9f41ef"/>
      <stop offset="1" stop-color="#33b1fb"/>
    </linearGradient>
    <linearGradient id="linear-gradient-2" x1="856.1" y1="1197.5" x2="184" y2="725.5" xlink:href="#linear-gradient"/>
    <linearGradient id="linear-gradient-3" x1="870.3" y1="1177.4" x2="198.1" y2="705.4" xlink:href="#linear-gradient"/>
    <linearGradient id="linear-gradient-4" x1="931.1" y1="1088.9" x2="259" y2="616.9" xlink:href="#linear-gradient"/>
    <linearGradient id="linear-gradient-5" x1="947.6" y1="1065.4" x2="275.5" y2="593.4" xlink:href="#linear-gradient"/>
    <linearGradient id="linear-gradient-6" x1="985.7" y1="1011.2" x2="313.6" y2="539.2" xlink:href="#linear-gradient"/>
    <linearGradient id="linear-gradient-7" x1="1017.4" y1="966.1" x2="345.3" y2="494.1" xlink:href="#linear-gradient"/>
    <linearGradient id="linear-gradient-8" x1="1048" y1="922.6" x2="375.8" y2="450.6" xlink:href="#linear-gradient"/>
    <linearGradient id="linear-gradient-9" x1="1069.9" y1="891.3" x2="397.8" y2="419.3" xlink:href="#linear-gradient"/>
    <linearGradient id="linear-gradient-10" x1="1099.5" y1="849.2" x2="427.4" y2="377.2" xlink:href="#linear-gradient"/>
    <linearGradient id="linear-gradient-11" x1="1122.3" y1="816.7" x2="450.2" y2="344.7" xlink:href="#linear-gradient"/>
    <linearGradient id="linear-gradient-12" x1="740.7" y1="598.6" x2="478.2" y2="375.5" xlink:href="#linear-gradient"/>
    <linearGradient id="linear-gradient-13" x1="747.9" y1="590.2" x2="485.4" y2="367" xlink:href="#linear-gradient"/>
    <radialGradient id="radial-gradient" cx="702.1" cy="292.9" fx="702.1" fy="292.9" r="2.1" gradientUnits="userSpaceOnUse">
      <stop offset="0" stop-color="#ccc"/>
      <stop offset="0" stop-color="#cfcfcf"/>
      <stop offset=".5" stop-color="#f1f1f1"/>
      <stop offset=".8" stop-color="#fff"/>
    </radialGradient>
    <linearGradient id="linear-gradient-14" x1="789.9" y1="1291.9" x2="117.7" y2="819.9" xlink:href="#linear-gradient"/>
    <linearGradient id="linear-gradient-15" x1="800.2" y1="1277.2" x2="128.1" y2="805.2" xlink:href="#linear-gradient"/>
    <linearGradient id="linear-gradient-16" x1="809.8" y1="1263.5" x2="137.7" y2="791.5" xlink:href="#linear-gradient"/>
    <linearGradient id="linear-gradient-17" x1="825.5" y1="1241.2" x2="153.4" y2="769.2" xlink:href="#linear-gradient"/>
    <linearGradient id="linear-gradient-18" x1="841" y1="1219.1" x2="168.9" y2="747" xlink:href="#linear-gradient"/>
    <linearGradient id="linear-gradient-19" x1="854.4" y1="1200" x2="182.3" y2="728" xlink:href="#linear-gradient"/>
    <linearGradient id="linear-gradient-20" x1="867.8" y1="1180.9" x2="195.7" y2="708.9" xlink:href="#linear-gradient"/>
    <linearGradient id="linear-gradient-21" x1="877.2" y1="1167.6" x2="205" y2="695.6" xlink:href="#linear-gradient"/>
    <linearGradient id="linear-gradient-22" x1="892" y1="1146.5" x2="219.8" y2="674.5" xlink:href="#linear-gradient"/>
    <linearGradient id="linear-gradient-23" x1="904.8" y1="1128.3" x2="232.7" y2="656.3" xlink:href="#linear-gradient"/>
    <linearGradient id="linear-gradient-24" x1="915.1" y1="1113.6" x2="243" y2="641.6" xlink:href="#linear-gradient"/>
    <linearGradient id="linear-gradient-25" x1="925.9" y1="1098.2" x2="253.8" y2="626.2" xlink:href="#linear-gradient"/>
    <linearGradient id="linear-gradient-26" x1="930.2" y1="1092.1" x2="258" y2="620.1" xlink:href="#linear-gradient"/>
    <linearGradient id="linear-gradient-27" x1="943.1" y1="1073.7" x2="271" y2="601.7" xlink:href="#linear-gradient"/>
    <linearGradient id="linear-gradient-28" x1="954.1" y1="1058" x2="282" y2="586" xlink:href="#linear-gradient"/>
    <linearGradient id="linear-gradient-29" x1="964.4" y1="1043.3" x2="292.3" y2="571.3" xlink:href="#linear-gradient"/>
    <linearGradient id="linear-gradient-30" x1="983.9" y1="1015.7" x2="311.7" y2="543.7" xlink:href="#linear-gradient"/>
    <linearGradient id="linear-gradient-31" x1="996.7" y1="997.4" x2="324.6" y2="525.4" xlink:href="#linear-gradient"/>
    <linearGradient id="linear-gradient-32" x1="1000.9" y1="991.3" x2="328.8" y2="519.3" xlink:href="#linear-gradient"/>
    <linearGradient id="linear-gradient-33" x1="1010.2" y1="978.2" x2="338" y2="506.2" xlink:href="#linear-gradient"/>
    <linearGradient id="linear-gradient-34" x1="1027.5" y1="953.5" x2="355.4" y2="481.5" xlink:href="#linear-gradient"/>
    <linearGradient id="linear-gradient-35" x1="1037.8" y1="938.8" x2="365.7" y2="466.8" xlink:href="#linear-gradient"/>
    <linearGradient id="linear-gradient-36" x1="1047.4" y1="925.3" x2="375.2" y2="453.2" xlink:href="#linear-gradient"/>
    <linearGradient id="linear-gradient-37" x1="758.3" y1="1083.2" x2="306.8" y2="685.6" xlink:href="#linear-gradient"/>
  </defs>
  <g>
    <g>
      <path class="cls-5" d="M149,742c3.9,5.2,5.9,11.1,5.9,17.9,0,10.3-3.4,18.3-10.2,23.9-6.8,5.6-16.6,8.4-29.3,8.4h-61.7v-117.7h60c12,0,21.4,2.6,28.3,7.8,6.9,5.2,10.3,12.8,10.3,22.8s-1.8,12.7-5.4,17.4c-3.6,4.7-8.4,7.8-14.4,9.4,7.1,1.7,12.6,5.1,16.5,10.2ZM90.5,720.3h14.3c3.3,0,5.8-.7,7.4-2,1.6-1.3,2.4-3.4,2.4-6.2s-.8-5-2.4-6.4c-1.6-1.4-4.1-2.1-7.4-2.1h-14.3v16.6ZM114.7,760.6c1.6-1.3,2.4-3.4,2.4-6.2,0-5.7-3.3-8.5-9.8-8.5h-16.8v16.6h16.8c3.3,0,5.8-.6,7.4-1.9Z"/>
      <path class="cls-22" d="M170.5,685.7c-3.9-3.4-5.8-7.8-5.8-13s1.9-9.7,5.8-13.2c3.9-3.5,9-5.2,15.5-5.2s11.4,1.7,15.3,5.2c3.9,3.5,5.8,7.9,5.8,13.2s-1.9,9.5-5.8,13c-3.9,3.4-9,5.2-15.3,5.2s-11.6-1.7-15.5-5.2ZM204.3,698.4v93.8h-36.9v-93.8h36.9Z"/>
      <path class="cls-24" d="M256.3,761.5h39.1v30.6h-79.5v-28.9l35.7-34.2h-35.2v-30.6h77.3v28.9l-37.4,34.2Z"/>
      <path class="cls-38" d="M428.4,669.1v123h-15.1v-123h15.1Z"/>
      <path class="cls-10" d="M536.8,752.2h-72.8c.6,9,3.6,16,9.2,21,5.6,5,12.4,7.6,20.4,7.6s12-1.5,16.4-4.6c4.4-3,7.5-7.1,9.2-12.2h16.3c-2.4,8.8-7.3,15.9-14.6,21.4-7.3,5.5-16.4,8.2-27.3,8.2s-16.4-1.9-23.2-5.8c-6.8-3.9-12.2-9.4-16-16.5-3.9-7.1-5.8-15.4-5.8-24.9s1.9-17.7,5.7-24.8c3.8-7.1,9.1-12.6,15.9-16.4,6.8-3.8,14.7-5.7,23.5-5.7s16.3,1.9,22.9,5.7c6.7,3.8,11.8,9,15.4,15.5,3.6,6.6,5.4,14,5.4,22.4s-.2,5.9-.5,9.1ZM517.9,725c-2.6-4.2-6-7.3-10.4-9.5-4.4-2.2-9.2-3.2-14.5-3.2-7.6,0-14.2,2.4-19.5,7.3-5.4,4.9-8.5,11.6-9.2,20.3h57.5c0-5.8-1.3-10.7-3.8-14.9Z"/>
      <path class="cls-7" d="M591.2,778.2l28.3-77.1h16.1l-35.7,91.1h-17.6l-35.7-91.1h16.3l28.4,77.1Z"/>
      <path class="cls-23" d="M650.6,721.7c3.8-7,8.9-12.5,15.5-16.4,6.6-3.9,13.9-5.8,22-5.8s14.9,1.7,20.8,5.2c5.9,3.4,10.3,7.8,13.1,13v-16.6h15.3v91.1h-15.3v-17c-3,5.3-7.5,9.7-13.4,13.2-5.9,3.5-12.8,5.2-20.7,5.2s-15.4-2-21.9-6c-6.5-4-11.7-9.6-15.5-16.8-3.8-7.2-5.7-15.4-5.7-24.6s1.9-17.5,5.7-24.5ZM717.9,728.4c-2.8-5.1-6.5-9-11.2-11.7-4.7-2.7-9.9-4.1-15.5-4.1s-10.8,1.3-15.5,4-8.4,6.5-11.1,11.6c-2.8,5.1-4.2,11.1-4.2,18s1.4,13.1,4.2,18.2c2.8,5.2,6.5,9.1,11.1,11.8,4.7,2.7,9.8,4.1,15.5,4.1s10.8-1.4,15.5-4.1c4.7-2.7,8.5-6.7,11.2-11.8,2.8-5.2,4.2-11.2,4.2-18s-1.4-12.9-4.2-18Z"/>
      <path class="cls-30" d="M781.4,713.5v53.7c0,4.4.9,7.6,2.8,9.4,1.9,1.8,5.2,2.7,9.8,2.7h11.1v12.8h-13.6c-8.4,0-14.7-1.9-19-5.8-4.2-3.9-6.3-10.3-6.3-19.1v-53.7h-11.8v-12.5h11.8v-22.9h15.1v22.9h23.8v12.5h-23.8Z"/>
      <path class="cls-25" d="M840,787.8c-6.9-3.9-12.4-9.4-16.3-16.5-3.9-7.1-5.9-15.4-5.9-24.9s2-17.5,6.1-24.7c4-7.1,9.6-12.6,16.5-16.5,7-3.8,14.8-5.7,23.4-5.7s16.5,1.9,23.4,5.7c7,3.8,12.5,9.3,16.5,16.4,4,7.1,6.1,15.4,6.1,24.8s-2.1,17.7-6.2,24.9-9.8,12.7-16.9,16.5c-7.1,3.9-15,5.8-23.6,5.8s-16.3-1.9-23.2-5.8ZM878.5,776.5c4.8-2.5,8.6-6.4,11.6-11.5,2.9-5.1,4.4-11.3,4.4-18.6s-1.4-13.5-4.3-18.6c-2.9-5.1-6.6-8.9-11.3-11.4-4.7-2.5-9.7-3.7-15.1-3.7s-10.6,1.2-15.2,3.7c-4.6,2.5-8.3,6.3-11.1,11.4-2.8,5.1-4.2,11.3-4.2,18.6s1.4,13.7,4.1,18.8c2.7,5.1,6.3,8.9,10.9,11.4,4.5,2.5,9.5,3.7,15,3.7s10.5-1.3,15.3-3.8Z"/>
      <path class="cls-37" d="M956.4,703.7c4.9-2.9,10.9-4.3,18-4.3v15.6h-4c-17,0-25.4,9.2-25.4,27.6v49.5h-15.1v-91.1h15.1v14.8c2.7-5.2,6.5-9.3,11.4-12.1Z"/>
      <path class="cls-9" d="M1005.3,790c-5.5-2.4-9.9-5.7-13.1-10-3.2-4.3-5-9.2-5.3-14.7h15.6c.4,4.5,2.6,8.3,6.4,11.1,3.8,2.9,8.8,4.3,15,4.3s10.3-1.3,13.6-3.8c3.3-2.5,5-5.8,5-9.6s-1.8-7-5.3-8.9c-3.5-1.9-9-3.8-16.5-5.7-6.8-1.8-12.3-3.6-16.5-5.4-4.3-1.8-7.9-4.5-11-8.1-3-3.6-4.6-8.3-4.6-14.2s1.4-8.9,4.2-12.8c2.8-3.9,6.7-7,11.8-9.2,5.1-2.3,10.9-3.4,17.5-3.4,10.1,0,18.2,2.6,24.4,7.6,6.2,5.1,9.5,12.1,10,20.9h-15.1c-.3-4.8-2.2-8.6-5.7-11.5-3.5-2.9-8.2-4.3-14-4.3s-9.8,1.2-13,3.5c-3.2,2.3-4.8,5.4-4.8,9.1s1,5.5,2.9,7.4c1.9,1.9,4.4,3.5,7.3,4.7,2.9,1.2,7,2.5,12.2,3.9,6.5,1.8,11.9,3.5,16,5.2,4.1,1.7,7.6,4.3,10.6,7.7,2.9,3.4,4.5,7.9,4.6,13.5,0,5-1.4,9.5-4.2,13.5-2.8,4-6.7,7.1-11.7,9.4-5,2.3-10.8,3.4-17.4,3.4s-13.2-1.2-18.8-3.6Z"/>
    </g>
    <g>
      <g>
        <path class="cls-1" d="M723.4,508.6c.2-28.4-9.8-52.2-31.3-71.1-9.2-8.1-9.1-13.5.4-21.9,13.8-12.2,24.1-26.8,27.8-44.8,2.8-13.5,4.3-27.2,4-40.8-3.8,1.2-7.8,1.8-12,1.8h0c-22.7,0-41.1-18.4-41.1-41.1h0c0-16.2,9.4-30.3,23.1-37-15.5-13.7-36.3-21.4-59.9-21.5-70.1-.3-140.2-.1-210.4,0-23.3,0-35.9,12.9-35.9,36.6,0,52.6,0,105.2,0,157.8h0c0,52.9,0,105.9,0,158.8,0,21.6,12.7,35.9,32.5,35.9,72.5.1,145.1.3,217.6,0,36.2-.2,66.7-22.5,79.7-56.6,7-18.2,5.5-37.2,5.6-56ZM483.6,555.4c-.2,10.6-7.6,17-17.1,16.6-9-.4-15.1-6.9-15.3-17.3-.3-13.7,0-27.4,0-41.2,0-13.7-.2-27.5,0-41.2.2-10.8,6.5-17.5,16-17.7,8.8-.2,16.1,6.2,16.3,16.3.5,28.1.5,56.3,0,84.4ZM503.4,356.8c-2.3,1.4-4.7,2.7-7.2,3.8-.4.2-.4.2-.3.6.2,1.4.2,2.9.2,4.3-.2,4.7-1.6,9.1-3.5,13.3-2.1,4.6-4.8,8.8-8.1,12.6-2.4,2.8-5.1,5.4-8,7.7-2.6,2.1-5.3,3.9-8.2,5.5-5.4,3.1-11.1,5.3-17.2,6.8-2.1.5-4.3.9-6.5,1.1,0,0-.2,0-.2,0h-3.6c-.1,0-.2,0-.3,0h-1.4c0,0,.1,0,0-.1,0,0-.2,0-.3,0-.7-.1-1.3-.3-2-.5-1.3-.4-2.4-1-3.4-2,0,0,0,0-.1,0h0v-.2h0c0,0,0,0,0,0,.2,0,.4,0,.6.1,1.2.5,2.4.8,3.7,1,1.2.2,2.5.2,3.7,0,3.4-.3,6.7-1.2,10-2.2,5.1-1.6,9.9-3.8,14.4-6.6,3.9-2.4,7.5-5.2,10.8-8.5,3.9-3.9,7.3-8.3,9.8-13.3,1.5-2.9,2.7-5.9,3.5-9,.7-2.6,1-5.2.8-7.9,0-.2,0-.4,0-.7-.1,0-.2,0-.3,0-3.2,1.2-6.6,2.1-9.9,2.7-1.4.3-2.8.5-4.2.7-2.5.3-4.9.5-7.4.5-1.9,0-3.7,0-5.6-.2-1.2,0-2.5-.2-3.7-.4-2.7-.4-5.3-1.2-7.7-2.7-.9-.6-1.8-1.3-2.5-2.2-1.4-1.6-2.1-3.4-2.1-5.5,0-1.5.4-2.9,1.1-4.2.8-1.4,1.7-2.7,2.8-3.9,3.9-4.4,8.8-7.1,14.5-8.3,2.1-.5,4.3-.6,6.5-.5,4.4.2,8.5,1.6,12.2,4,3.8,2.5,6.7,5.8,8.9,9.8,0,0,0,.2.1.2,0,0,0,0,0,0,.3-.2.7-.3,1-.5,5.9-3.1,11.1-6.9,15.8-11.6,3.4-3.4,6.3-7,8.8-11.1,2.3-3.8,4.3-7.7,5.9-11.9,1.6-4.1,2.7-8.4,3.5-12.8.4-2,.6-4,.9-6.1.3-2.9.4-5.8.4-8.8,0-1.8,0-3.6-.2-5.4,0-.1,0-.2,0-.4-2.4,1.1-4.7,2.3-7,3.4-2.3,1.1-4.7,2.3-7,3.4,0-.3,15.1-30.2,15.7-31.1,6.5,9.6,13,19.2,19.5,28.8h0c-1.3-.3-2.5-.7-3.8-1.1-1.3-.4-2.6-.8-3.9-1.2-1.3-.4-2.6-.8-3.9-1.2,0,.2,0,.3,0,.5.1,2.8.1,5.6,0,8.4,0,1.5-.2,3-.4,4.5-.4,4.1-1.1,8.1-2.1,12.1-1.9,7.4-4.7,14.5-8.6,21-3.2,5.4-7.1,10.4-11.6,14.8-3.9,3.8-8.3,7.1-12.9,10ZM556.9,552.8c0,11.9-5.9,18.8-15.6,19-10.5.2-16.5-6.4-16.5-19.1-.1-46.1-.1-92.1,0-138.2,0-11.5,6.6-18.8,16.1-18.7,9.6.1,15.8,7.3,15.9,18.8.1,23,0,46.1,0,69.1h0c0,23,0,46.1,0,69.1ZM631,551.6c0,13.1-6,20.5-16.3,20.5-10.2,0-16.3-7.5-16.3-20.7,0-64.9,0-129.8,0-194.6,0-12,6.6-19.9,16.1-20.1,10.1-.2,16.5,7.6,16.5,20.4,0,22.6,0,45.2,0,67.7v30.1c0,10.3,0,20.7,0,31,0,21.9,0,43.9,0,65.8Z"/>
        <path class="cls-13" d="M484.5,350.5c-4.4-4.1-9.5-5.9-15.5-5.2-3.4.4-6.5,1.7-9.3,3.7-1.8,1.3-3.3,2.8-4.6,4.7-.3.5-.7,1-.9,1.6-.2.5,0,.9.2,1.3.2.3.5.5.8.7.8.5,1.6.9,2.4,1.2,1.4.5,2.9.6,4.3.8,1.9.2,3.7.2,5.6.2,1.7,0,3.4-.1,5.1-.3,1.7-.2,3.3-.4,5-.8,2.5-.5,5-1.1,7.4-2,1-.3,2.1-.7,3.1-1.1,0-.1-.1-.2-.2-.3-1-1.7-2.2-3.2-3.6-4.5Z"/>
      </g>
      <path class="cls-29" d="M701.2,280.3c-2.1,0-4.1.5-5.9,1.5,1.4,1.3,2.4,3.1,2.4,5.2,0,3.9-3.1,7-7,7s-1.1,0-1.7-.2c.6,6.2,5.8,11,12.2,11s12.3-5.5,12.3-12.3-5.5-12.3-12.3-12.3Z"/>
      <circle class="cls-27" cx="702.1" cy="292.9" r="2.1"/>
    </g>
    <g>
      <path class="cls-21" d="M178.9,842.7v4.7c0,12.1-9.9,22-22,22s-21.9-9.9-21.9-22,9.9-21.9,22-21.9,11.2,2.2,15.5,6.4l-6.5,6.6c-2.5-2.4-5.7-3.7-8.9-3.7-6.9,0-12.7,5.7-12.7,12.7s5.7,12.6,12.6,12.6,9.9-3.2,11.8-8h-10.2v-9.3h20.3Z"/>
      <path class="cls-8" d="M202.4,832.8v8.9h-2.2c-5.2,0-7.4,3.5-7.4,8.4v18.8h-8.9v-35.6h8.1l.6,3.6c1.5-2.4,3.9-4.1,7.6-4.1h2.2Z"/>
      <path class="cls-16" d="M240.8,851.1c0,10-8.1,18.1-18.1,18.1s-18.1-8.1-18.1-18.1,8.1-18.1,18.1-18.1,18.1,8.1,18.1,18.1ZM231.5,851.1c0-4.9-4-8.8-8.8-8.8s-8.8,4-8.8,8.8,3.9,8.8,8.8,8.8,8.8-3.9,8.8-8.8Z"/>
      <path class="cls-2" d="M290.2,833.2l-12.6,38.5-11.5-20.1-12.4,20.2-11.2-38.6h9.3l4.9,16.8,9.7-15.8,9,15.7,5.4-16.6h9.4Z"/>
      <path class="cls-33" d="M339.2,833.2l-20,45.9h-9.9l7.7-17.6-10.3-28.2h10.2l5.4,16.2,7-16.2h9.9Z"/>
      <path class="cls-3" d="M375.8,851.1c0,10-8.1,18.1-18.1,18.1s-18.1-8.1-18.1-18.1,8.1-18.1,18.1-18.1,18.1,8.1,18.1,18.1ZM366.5,851.1c0-4.9-4-8.8-8.8-8.8s-8.8,4-8.8,8.8,3.9,8.8,8.8,8.8,8.8-3.9,8.8-8.8Z"/>
      <path class="cls-20" d="M409.8,833.3v35.6h-8.2l-.7-4.7c-1.8,3.3-5.1,5.2-9.9,5.2-10.4,0-10.3-8.6-10.3-18.6v-17.5h8.9v20.3c0,4.1.2,7.2,3.1,7.2,4.2,0,8.1-2,8.1-9.3v-18.1h8.9Z"/>
      <path class="cls-6" d="M435.4,832.8v8.9h-2.2c-5.2,0-7.4,3.5-7.4,8.4v18.8h-8.9v-35.6h8.1l.6,3.6c1.5-2.4,3.9-4.1,7.6-4.1h2.2Z"/>
      <path class="cls-17" d="M487.2,850.4c0,12.6-5.5,18.9-13.9,18.9s-7.2-1.4-9.5-4.3l-.4,3.9h-8.1v-51.9h8.9v19.4c2.2-2.3,5.2-3.4,8.6-3.4,7.8,0,14.5,6,14.5,17.4ZM478.4,850.7c0-6.4-3.6-9.5-7.2-9.5s-7,1.8-7,5.9v5.5c0,4.9,3.5,8,7.1,8s7.1-4,7.1-9.9Z"/>
      <path class="cls-14" d="M521.8,833.3v35.6h-8.2l-.7-4.7c-1.8,3.3-5.1,5.2-9.9,5.2-10.4,0-10.3-8.6-10.3-18.6v-17.5h8.9v20.3c0,4.1.2,7.2,3.1,7.2,4.2,0,8.1-2,8.1-9.3v-18.1h8.9Z"/>
      <path class="cls-31" d="M554.1,858.3c0,4.2-2.2,11-13.3,11s-10.9-3.1-14.7-7.7l5.9-5.9s3.8,5.7,8.8,5.7,3.9-1,3.9-3.1c0-5.8-14.3-5.2-14.3-15s2.6-10.3,11.6-10.3,11.2,3.9,12.5,6.2l-6,4.7s-1.8-2.7-4.7-2.7-2.7.9-2.7,2.3c0,3.2,13,4.5,13,14.7Z"/>
      <path class="cls-15" d="M557.8,822.9c0-3.2,2.7-5.9,5.9-5.9s5.9,2.7,5.9,5.9-2.7,5.9-5.9,5.9-5.9-2.6-5.9-5.9ZM559.3,868.9v-35.6h8.9v35.6h-8.9Z"/>
      <path class="cls-32" d="M604.3,851.5v17.5h-8.9v-17.5c0-5.5-.3-10-3.7-10s-7.5,2-7.5,9.3v18.1h-8.9v-35.6h8.1l.7,4.7c1.9-3.3,5.1-5.2,10.4-5.2,9.9,0,9.9,8.6,9.9,18.6Z"/>
      <path class="cls-26" d="M641.5,862c-4.1,4.9-10,7.5-15.5,7.5-8.6,0-16.5-6.1-16.5-19.1s8.6-17.7,16.8-17.7,14.9,4.9,14.9,14.2,0,1.5-.1,2.3l-20.2,8.7c1.8,2,4.3,3,6.8,3s6.5-1.5,8.2-4.1l5.6,5.1ZM618.5,850.8l13.1-5.7c0-2.5-2.5-4.1-5.2-4.1s-7.9,2.7-7.9,9.6v.2Z"/>
      <path class="cls-36" d="M672.3,858.3c0,4.2-2.2,11-13.3,11s-10.9-3.1-14.7-7.7l5.9-5.9s3.8,5.7,8.8,5.7,3.9-1,3.9-3.1c0-5.8-14.3-5.2-14.3-15s2.6-10.3,11.6-10.3,11.2,3.9,12.5,6.2l-6,4.7s-1.8-2.7-4.7-2.7-2.7.9-2.7,2.3c0,3.2,13,4.5,13,14.7Z"/>
      <path class="cls-35" d="M703.5,858.3c0,4.2-2.2,11-13.3,11s-10.9-3.1-14.7-7.7l5.9-5.9s3.8,5.7,8.8,5.7,3.9-1,3.9-3.1c0-5.8-14.3-5.2-14.3-15s2.6-10.3,11.6-10.3,11.2,3.9,12.5,6.2l-6,4.7s-1.8-2.7-4.7-2.7-2.7.9-2.7,2.3c0,3.2,13,4.5,13,14.7Z"/>
      <path class="cls-34" d="M769.7,833.2l-12.6,38.5-11.5-20.1-12.4,20.2-11.2-38.6h9.2l4.9,16.8,9.7-15.8,9,15.7,5.4-16.6h9.4Z"/>
      <path class="cls-11" d="M772.3,822.9c0-3.2,2.7-5.9,5.9-5.9s5.9,2.7,5.9,5.9-2.7,5.9-5.9,5.9-5.9-2.6-5.9-5.9ZM773.7,868.9v-35.6h8.9v35.6h-8.9Z"/>
      <path class="cls-19" d="M808.9,832.8v8.4h-6.4v27.2l-8.9,3.8v-31h-6.4v-8.4h6.4v-7.5h8.9v7.5h6.4Z"/>
      <path class="cls-4" d="M842.5,851.4v17.5h-8.9v-20c0-4.3-.2-7.6-3.1-7.6-4.3,0-8.1,2-8.1,9.4v18.2h-8.9v-51.6h8.9v20.4c1.9-3.2,5.1-5,10.3-5,9.9,0,9.9,8.6,9.9,18.6Z"/>
      <path class="cls-12" d="M893.3,833.3v35.6h-8.2l-.7-4.7c-1.8,3.3-5.1,5.2-9.9,5.2-10.4,0-10.3-8.6-10.3-18.6v-17.5h8.9v20.3c0,4.1.2,7.2,3.1,7.2,4.2,0,8.1-2,8.1-9.3v-18.1h8.9Z"/>
      <path class="cls-18" d="M925.7,858.3c0,4.2-2.2,11-13.3,11s-10.9-3.1-14.7-7.7l5.9-5.9s3.8,5.7,8.8,5.7,3.9-1,3.9-3.1c0-5.8-14.3-5.2-14.3-15s2.6-10.3,11.6-10.3,11.2,3.9,12.5,6.2l-6,4.7s-1.8-2.7-4.7-2.7-2.7.9-2.7,2.3c0,3.2,13,4.5,13,14.7Z"/>
      <path class="cls-28" d="M930.6,865.4c0-3.3,2.7-5.9,5.9-5.9s5.9,2.6,5.9,5.9-2.7,5.9-5.9,5.9-5.9-2.7-5.9-5.9ZM932.6,857l-.6-31.7h8.9l-.6,31.7h-7.6Z"/>
    </g>
  </g>
  <path class="cls-39" d="M342.3,683.2v36.8h43.3v16.8h-43.3v38.5h48.8v16.8h-69.3v-125.7h69.3v16.8h-48.8Z"/>
</svg>