<?xml version="1.0" encoding="UTF-8"?>
<svg id="Layer_1" data-name="Layer 1" xmlns="http://www.w3.org/2000/svg" version="1.1" viewBox="0 0 1080 1080">
  <defs>
    <style>
      .cls-1 {
        fill: #fff;
        stroke-width: 0px;
      }
    </style>
  </defs>
  <g>
    <g>
      <path class="cls-1" d="M118.3,733.4c4,5.4,6.1,11.5,6.1,18.6,0,10.7-3.5,19-10.6,24.8-7.1,5.8-17.2,8.7-30.4,8.7H19.4v-122.1h62.2c12.4,0,22.2,2.7,29.4,8.1,7.2,5.4,10.7,13.3,10.7,23.6s-1.9,13.2-5.6,18c-3.7,4.9-8.7,8.1-14.9,9.7,7.4,1.8,13.1,5.3,17.1,10.6h0ZM57.6,710.9h14.8c3.4,0,6-.7,7.7-2.1s2.5-3.5,2.5-6.4-.8-5.2-2.5-6.6-4.3-2.2-7.7-2.2h-14.8v17.2h0ZM82.7,752.7c1.7-1.3,2.5-3.5,2.5-6.4,0-5.9-3.4-8.8-10.2-8.8h-17.4v17.2h17.4c3.4,0,6-.6,7.7-2h0Z"/>
      <path class="cls-1" d="M140.6,675c-4-3.5-6-8.1-6-13.5s2-10.1,6-13.7c4-3.6,9.3-5.4,16.1-5.4s11.8,1.8,15.9,5.4c4,3.6,6,8.2,6,13.7s-2,9.9-6,13.5c-4,3.5-9.3,5.4-15.9,5.4s-12-1.8-16.1-5.4ZM175.6,688.1v97.3h-38.3v-97.3h38.3Z"/>
      <path class="cls-1" d="M229.6,753.6h40.6v31.7h-82.5v-30l37-35.5h-36.5v-31.7h80.2v30l-38.8,35.5h0Z"/>
      <path class="cls-1" d="M408.1,657.8v127.6h-15.7v-127.6h15.7Z"/>
      <path class="cls-1" d="M520.5,743.9h-75.5c.6,9.3,3.7,16.6,9.5,21.8,5.8,5.2,12.9,7.9,21.2,7.9s12.4-1.6,17-4.8c4.6-3.1,7.8-7.4,9.5-12.7h16.9c-2.5,9.1-7.6,16.5-15.1,22.2s-17,8.5-28.3,8.5-17-2-24.1-6c-7.1-4-12.7-9.7-16.6-17.1-4-7.4-6-16-6-25.8s2-18.4,5.9-25.7c3.9-7.4,9.4-13.1,16.5-17,7.1-3.9,15.2-5.9,24.4-5.9s16.9,2,23.8,5.9c6.9,3.9,12.2,9.3,16,16.1,3.7,6.8,5.6,14.5,5.6,23.2s-.2,6.1-.5,9.4h-.1ZM500.9,715.7c-2.7-4.4-6.2-7.6-10.8-9.9s-9.5-3.3-15-3.3c-7.9,0-14.7,2.5-20.2,7.6-5.6,5.1-8.8,12-9.5,21.1h59.6c0-6-1.3-11.1-3.9-15.5h-.1Z"/>
      <path class="cls-1" d="M576.9,770.9l29.4-80h16.7l-37,94.5h-18.3l-37-94.5h16.9l29.5,80h-.1Z"/>
      <path class="cls-1" d="M638.5,712.3c3.9-7.3,9.2-13,16.1-17s14.4-6,22.8-6,15.5,1.8,21.6,5.4c6.1,3.5,10.7,8.1,13.6,13.5v-17.2h15.9v94.5h-15.9v-17.6c-3.1,5.5-7.8,10.1-13.9,13.7s-13.3,5.4-21.5,5.4-16-2.1-22.7-6.2c-6.7-4.1-12.1-10-16.1-17.4s-5.9-16-5.9-25.5,2-18.2,5.9-25.4h.1ZM708.3,719.3c-2.9-5.3-6.7-9.3-11.6-12.1-4.9-2.8-10.3-4.3-16.1-4.3s-11.2,1.3-16.1,4.1c-4.9,2.8-8.7,6.7-11.5,12-2.9,5.3-4.4,11.5-4.4,18.7s1.5,13.6,4.4,18.9c2.9,5.4,6.7,9.4,11.5,12.2,4.9,2.8,10.2,4.3,16.1,4.3s11.2-1.5,16.1-4.3c4.9-2.8,8.8-6.9,11.6-12.2,2.9-5.4,4.4-11.6,4.4-18.7s-1.5-13.4-4.4-18.7Z"/>
      <path class="cls-1" d="M774.2,703.8v55.7c0,4.6.9,7.9,2.9,9.7,2,1.9,5.4,2.8,10.2,2.8h11.5v13.3h-14.1c-8.7,0-15.2-2-19.7-6-4.4-4-6.5-10.7-6.5-19.8v-55.7h-12.2v-13h12.2v-23.8h15.7v23.8h24.7v13h-24.7.1Z"/>
      <path class="cls-1" d="M835,780.9c-7.2-4-12.9-9.7-16.9-17.1-4-7.4-6.1-16-6.1-25.8s2.1-18.2,6.3-25.6c4.1-7.4,10-13.1,17.1-17.1,7.3-3.9,15.4-5.9,24.3-5.9s17.1,2,24.3,5.9c7.3,3.9,13,9.6,17.1,17,4.1,7.4,6.3,16,6.3,25.7s-2.2,18.4-6.4,25.8-10.2,13.2-17.5,17.1c-7.4,4-15.6,6-24.5,6s-16.9-2-24.1-6h.1ZM874.9,769.1c5-2.6,8.9-6.6,12-11.9,3-5.3,4.6-11.7,4.6-19.3s-1.5-14-4.5-19.3c-3-5.3-6.8-9.2-11.7-11.8-4.9-2.6-10.1-3.8-15.7-3.8s-11,1.2-15.8,3.8c-4.8,2.6-8.6,6.5-11.5,11.8-2.9,5.3-4.4,11.7-4.4,19.3s1.5,14.2,4.3,19.5c2.8,5.3,6.5,9.2,11.3,11.8,4.7,2.6,9.9,3.8,15.6,3.8s10.9-1.3,15.9-3.9h-.1Z"/>
      <path class="cls-1" d="M955.7,693.6c5.1-3,11.3-4.5,18.7-4.5v16.2h-4.1c-17.6,0-26.3,9.5-26.3,28.6v51.3h-15.7v-94.5h15.7v15.4c2.8-5.4,6.7-9.6,11.8-12.6Z"/>
      <path class="cls-1" d="M1006.4,783.1c-5.7-2.5-10.3-5.9-13.6-10.4-3.3-4.5-5.2-9.5-5.5-15.2h16.2c.4,4.7,2.7,8.6,6.6,11.5,3.9,3,9.1,4.5,15.6,4.5s10.7-1.3,14.1-3.9c3.4-2.6,5.2-6,5.2-10s-1.9-7.3-5.5-9.2-9.3-3.9-17.1-5.9c-7.1-1.9-12.8-3.7-17.1-5.6-4.5-1.9-8.2-4.7-11.4-8.4-3.1-3.7-4.8-8.6-4.8-14.7s1.5-9.2,4.4-13.3c2.9-4,6.9-7.3,12.2-9.5,5.3-2.4,11.3-3.5,18.2-3.5,10.5,0,18.9,2.7,25.3,7.9,6.4,5.3,9.9,12.6,10.4,21.7h-15.7c-.3-5-2.3-8.9-5.9-11.9-3.6-3-8.5-4.5-14.5-4.5s-10.2,1.2-13.5,3.6-5,5.6-5,9.4,1,5.7,3,7.7,4.6,3.6,7.6,4.9c3,1.2,7.3,2.6,12.7,4,6.7,1.9,12.3,3.6,16.6,5.4s7.9,4.5,11,8c3,3.5,4.7,8.2,4.8,14,0,5.2-1.5,9.9-4.4,14-2.9,4.1-6.9,7.4-12.1,9.7-5.2,2.4-11.2,3.5-18,3.5s-13.7-1.2-19.5-3.7h-.1Z"/>
    </g>
    <g>
      <g>
        <path class="cls-1" d="M714,491.3c.2-29.5-10.2-54.1-32.5-73.7-9.5-8.4-9.4-14,.4-22.7,14.3-12.7,25-27.8,28.8-46.5,2.9-14,4.5-28.2,4.1-42.3-3.9,1.2-8.1,1.9-12.4,1.9h0c-23.5,0-42.6-19.1-42.6-42.6h0c0-16.8,9.7-31.4,24-38.4-16.1-14.2-37.7-22.2-62.1-22.3-72.7-.3-145.4-.1-218.2,0-24.2,0-37.2,13.4-37.2,38v163.7h0v164.7c0,22.4,13.2,37.2,33.7,37.2,75.2.1,150.5.3,225.7,0,37.5-.2,69.2-23.3,82.7-58.7,7.3-18.9,5.7-38.6,5.8-58.1h-.1ZM465.3,539.8c-.2,11-7.9,17.6-17.7,17.2-9.3-.4-15.7-7.2-15.9-17.9-.3-14.2,0-28.4,0-42.7s-.2-28.5,0-42.7c.2-11.2,6.7-18.2,16.6-18.4,9.1-.2,16.7,6.4,16.9,16.9.5,29.1.5,58.4,0,87.5h.1ZM485.9,333.8c-2.4,1.5-4.9,2.8-7.5,3.9q-.4.2-.3.6c.2,1.5.2,3,.2,4.5-.2,4.9-1.7,9.4-3.6,13.8-2.2,4.8-5,9.1-8.4,13.1-2.5,2.9-5.3,5.6-8.3,8-2.7,2.2-5.5,4-8.5,5.7-5.6,3.2-11.5,5.5-17.8,7.1-2.2.5-4.5.9-6.7,1.1h-5.7s.1,0,0-.1h-.3c-.7-.1-1.3-.3-2.1-.5-1.3-.4-2.5-1-3.5-2.1h-.1v-.2h0c.2,0,.4,0,.6.1,1.2.5,2.5.8,3.8,1,1.2.2,2.6.2,3.8,0,3.5-.3,6.9-1.2,10.4-2.3,5.3-1.7,10.3-3.9,14.9-6.8,4-2.5,7.8-5.4,11.2-8.8s7.6-8.6,10.2-13.8c1.6-3,2.8-6.1,3.6-9.3.7-2.7,1-5.4.8-8.2v-.7h-.3c-3.3,1.2-6.8,2.2-10.3,2.8-1.5.3-2.9.5-4.4.7-2.6.3-5.1.5-7.7.5s-3.8,0-5.8-.2c-1.2,0-2.6-.2-3.8-.4-2.8-.4-5.5-1.2-8-2.8-.9-.6-1.9-1.3-2.6-2.3-1.5-1.7-2.2-3.5-2.2-5.7s.4-3,1.1-4.4c.8-1.5,1.8-2.8,2.9-4,4-4.6,9.1-7.4,15-8.6,2.2-.5,4.5-.6,6.7-.5,4.6.2,8.8,1.7,12.7,4.1,3.9,2.6,6.9,6,9.2,10.2,0,0,0,.2.1.2h0c.3-.2.7-.3,1-.5,6.1-3.2,11.5-7.2,16.4-12,3.5-3.5,6.5-7.3,9.1-11.5,2.4-3.9,4.5-8,6.1-12.3,1.7-4.3,2.8-8.7,3.6-13.3.4-2.1.6-4.1.9-6.3.3-3,.4-6,.4-9.1s0-3.7-.2-5.6v-.4c-2.5,1.1-4.9,2.4-7.3,3.5s-4.9,2.4-7.3,3.5c0-.3,15.7-31.3,16.3-32.3,6.7,10,13.5,19.9,20.2,29.9h0c-1.3-.3-2.6-.7-3.9-1.1s-2.7-.8-4-1.2c-1.3-.4-2.7-.8-4-1.2v.5c.1,2.9.1,5.8,0,8.7,0,1.6-.2,3.1-.4,4.7-.4,4.3-1.1,8.4-2.2,12.6-2,7.7-4.9,15-8.9,21.8-3.3,5.6-7.4,10.8-12,15.4-4,3.9-8.6,7.4-13.4,10.4v.5ZM541.3,537.1c0,12.3-6.1,19.5-16.2,19.7-10.9.2-17.1-6.6-17.1-19.8-.1-47.8-.1-95.5,0-143.3,0-11.9,6.8-19.5,16.7-19.4,10,.1,16.4,7.6,16.5,19.5.1,23.9,0,47.8,0,71.7h0v71.7h.1ZM618.2,535.9c0,13.6-6.2,21.3-16.9,21.3s-16.9-7.8-16.9-21.5v-201.8c0-12.4,6.8-20.6,16.7-20.8,10.5-.2,17.1,7.9,17.1,21.2v201.8h0Z"/>
        <path class="cls-1" d="M466.3,327.3c-4.6-4.3-9.9-6.1-16.1-5.4-3.5.4-6.7,1.8-9.6,3.8-1.9,1.3-3.4,2.9-4.8,4.9-.3.5-.7,1-.9,1.7-.2.5,0,.9.2,1.3.2.3.5.5.8.7.8.5,1.7.9,2.5,1.2,1.5.5,3,.6,4.5.8,2,.2,3.8.2,5.8.2s3.5-.1,5.3-.3c1.8-.2,3.4-.4,5.2-.8,2.6-.5,5.2-1.1,7.7-2.1,1-.3,2.2-.7,3.2-1.1,0-.1-.1-.2-.2-.3-1-1.8-2.3-3.3-3.7-4.7h.2Z"/>
      </g>
      <g>
        <path class="cls-1" d="M678.4,268.5s0,0,0,.1c0,0,.1,0,0-.1Z"/>
        <path class="cls-1" d="M691,254.4h0c-2.2.1-4.3.6-6.1,1.7,1.5,1.3,2.5,3.2,2.5,5.4,0,4-3.2,7.3-7.3,7.3s-1.4,0-1.7,0c.7,6.3,6.1,11.2,12.6,11.2s12.8-5.7,12.8-12.8-5.7-12.8-12.8-12.8ZM691.9,269.7c-1.2,0-2.2-1-2.2-2.2s1-2.2,2.2-2.2,2.2,1,2.2,2.2-1,2.2-2.2,2.2Z"/>
        <path class="cls-1" d="M678.4,268.7s0,0,0,0c-.2,0-.9,0,0,0Z"/>
      </g>
    </g>
    <g>
      <path class="cls-1" d="M149.3,837.8v4.9c0,12.6-10.3,22.8-22.8,22.8s-22.7-10.3-22.7-22.8,10.3-22.7,22.8-22.7,11.6,2.3,16.1,6.6l-6.7,6.8c-2.6-2.5-5.9-3.8-9.2-3.8-7.2,0-13.2,5.9-13.2,13.2s5.9,13.1,13.1,13.1,10.3-3.3,12.2-8.3h-10.6v-9.6h21.1,0Z"/>
      <path class="cls-1" d="M173.7,827.5v9.2h-2.3c-5.4,0-7.7,3.6-7.7,8.7v19.5h-9.2v-36.9h8.4l.6,3.7c1.6-2.5,4-4.3,7.9-4.3h2.3,0Z"/>
      <path class="cls-1" d="M213.5,846.5c0,10.4-8.4,18.8-18.8,18.8s-18.8-8.4-18.8-18.8,8.4-18.8,18.8-18.8,18.8,8.4,18.8,18.8ZM203.8,846.5c0-5.1-4.1-9.1-9.1-9.1s-9.1,4.1-9.1,9.1,4,9.1,9.1,9.1,9.1-4,9.1-9.1Z"/>
      <path class="cls-1" d="M264.7,828l-13.1,39.9-11.9-20.8-12.9,21-11.6-40h9.6l5.1,17.4,10.1-16.4,9.3,16.3,5.6-17.2h9.7Z"/>
      <path class="cls-1" d="M315.6,828l-20.7,47.6h-10.3l8-18.3-10.7-29.2h10.6l5.6,16.8,7.3-16.8h10.3,0Z"/>
      <path class="cls-1" d="M353.5,846.5c0,10.4-8.4,18.8-18.8,18.8s-18.8-8.4-18.8-18.8,8.4-18.8,18.8-18.8,18.8,8.4,18.8,18.8ZM343.9,846.5c0-5.1-4.1-9.1-9.1-9.1s-9.1,4.1-9.1,9.1,4,9.1,9.1,9.1,9.1-4,9.1-9.1Z"/>
      <path class="cls-1" d="M388.8,828.1v36.9h-8.5l-.7-4.9c-1.9,3.4-5.3,5.4-10.3,5.4-10.8,0-10.7-8.9-10.7-19.3v-18.2h9.2v21.1c0,4.3.2,7.5,3.2,7.5,4.4,0,8.4-2.1,8.4-9.6v-18.8h9.3Z"/>
      <path class="cls-1" d="M415.3,827.5v9.2h-2.3c-5.4,0-7.7,3.6-7.7,8.7v19.5h-9.2v-36.9h8.4l.6,3.7c1.6-2.5,4-4.3,7.9-4.3h2.3,0Z"/>
      <path class="cls-1" d="M469.1,845.8c0,13.1-5.7,19.6-14.4,19.6s-7.5-1.5-9.9-4.5l-.4,4h-8.4v-53.8h9.2v20.1c2.3-2.4,5.4-3.5,8.9-3.5,8.1,0,15,6.2,15,18h-.1ZM459.9,846.1c0-6.6-3.7-9.9-7.5-9.9s-7.3,1.9-7.3,6.1v5.7c0,5.1,3.6,8.3,7.4,8.3s7.4-4.1,7.4-10.3Z"/>
      <path class="cls-1" d="M504.9,828.1v36.9h-8.5l-.7-4.9c-1.9,3.4-5.3,5.4-10.3,5.4-10.8,0-10.7-8.9-10.7-19.3v-18.2h9.2v21.1c0,4.3.2,7.5,3.2,7.5,4.4,0,8.4-2.1,8.4-9.6v-18.8h9.3Z"/>
      <path class="cls-1" d="M538.4,854c0,4.4-2.3,11.4-13.8,11.4s-11.3-3.2-15.2-8l6.1-6.1s3.9,5.9,9.1,5.9,4-1,4-3.2c0-6-14.8-5.4-14.8-15.6s2.7-10.7,12-10.7,11.6,4,13,6.4l-6.2,4.9s-1.9-2.8-4.9-2.8-2.8.9-2.8,2.4c0,3.3,13.5,4.7,13.5,15.2h0Z"/>
      <path class="cls-1" d="M542.3,817.3c0-3.3,2.8-6.1,6.1-6.1s6.1,2.8,6.1,6.1-2.8,6.1-6.1,6.1-6.1-2.7-6.1-6.1ZM543.8,865v-36.9h9.2v36.9h-9.2Z"/>
      <path class="cls-1" d="M590.5,846.9v18.2h-9.2v-18.2c0-5.7-.3-10.4-3.8-10.4s-7.8,2.1-7.8,9.6v18.8h-9.2v-36.9h8.4l.7,4.9c2-3.4,5.3-5.4,10.8-5.4,10.3,0,10.3,8.9,10.3,19.3h-.1Z"/>
      <path class="cls-1" d="M629.1,857.8c-4.3,5.1-10.4,7.8-16.1,7.8-8.9,0-17.1-6.3-17.1-19.8s8.9-18.4,17.4-18.4,15.5,5.1,15.5,14.7,0,1.6-.1,2.4l-21,9c1.9,2.1,4.5,3.1,7.1,3.1s6.7-1.6,8.5-4.3l5.8,5.3h0ZM605.2,846.2l13.6-5.9c0-2.6-2.6-4.3-5.4-4.3s-8.2,2.8-8.2,10v.2h0Z"/>
      <path class="cls-1" d="M661,854c0,4.4-2.3,11.4-13.8,11.4s-11.3-3.2-15.2-8l6.1-6.1s3.9,5.9,9.1,5.9,4-1,4-3.2c0-6-14.8-5.4-14.8-15.6s2.7-10.7,12-10.7,11.6,4,13,6.4l-6.2,4.9s-1.9-2.8-4.9-2.8-2.8.9-2.8,2.4c0,3.3,13.5,4.7,13.5,15.2h0Z"/>
      <path class="cls-1" d="M693.4,854c0,4.4-2.3,11.4-13.8,11.4s-11.3-3.2-15.2-8l6.1-6.1s3.9,5.9,9.1,5.9,4-1,4-3.2c0-6-14.8-5.4-14.8-15.6s2.7-10.7,12-10.7,11.6,4,13,6.4l-6.2,4.9s-1.9-2.8-4.9-2.8-2.8.9-2.8,2.4c0,3.3,13.5,4.7,13.5,15.2h0Z"/>
      <path class="cls-1" d="M762.1,828l-13.1,39.9-11.9-20.8-12.9,21-11.6-40h9.5l5.1,17.4,10.1-16.4,9.3,16.3,5.6-17.2h9.9Z"/>
      <path class="cls-1" d="M764.8,817.3c0-3.3,2.8-6.1,6.1-6.1s6.1,2.8,6.1,6.1-2.8,6.1-6.1,6.1-6.1-2.7-6.1-6.1ZM766.2,865v-36.9h9.2v36.9h-9.2Z"/>
      <path class="cls-1" d="M802.7,827.5v8.7h-6.6v28.2l-9.2,3.9v-32.2h-6.6v-8.7h6.6v-7.8h9.2v7.8h6.6Z"/>
      <path class="cls-1" d="M837.6,846.8v18.2h-9.2v-20.7c0-4.5-.2-7.9-3.2-7.9-4.5,0-8.4,2.1-8.4,9.7v18.9h-9.2v-53.5h9.2v21.2c2-3.3,5.3-5.2,10.7-5.2,10.3,0,10.3,8.9,10.3,19.3h-.1Z"/>
      <path class="cls-1" d="M890.3,828.1v36.9h-8.5l-.7-4.9c-1.9,3.4-5.3,5.4-10.3,5.4-10.8,0-10.7-8.9-10.7-19.3v-18.2h9.2v21.1c0,4.3.2,7.5,3.2,7.5,4.4,0,8.4-2.1,8.4-9.6v-18.8h9.3Z"/>
      <path class="cls-1" d="M923.9,854c0,4.4-2.3,11.4-13.8,11.4s-11.3-3.2-15.2-8l6.1-6.1s3.9,5.9,9.1,5.9,4-1,4-3.2c0-6-14.8-5.4-14.8-15.6s2.7-10.7,12-10.7,11.6,4,13,6.4l-6.2,4.9s-1.9-2.8-4.9-2.8-2.8.9-2.8,2.4c0,3.3,13.5,4.7,13.5,15.2h0Z"/>
      <path class="cls-1" d="M928.9,861.4c0-3.4,2.8-6.1,6.1-6.1s6.1,2.7,6.1,6.1-2.8,6.1-6.1,6.1-6.1-2.8-6.1-6.1ZM931,852.6l-.6-32.9h9.2l-.6,32.9h-8Z"/>
    </g>
  </g>
  <path class="cls-1" d="M318.8,672.4v38.2h44.9v17.4h-44.9v39.9h50.6v17.4h-71.9v-130.4h71.9v17.4h-50.6Z"/>
</svg>